<svg xmlns="http://www.w3.org/2000/svg" xmlns:xlink="http://www.w3.org/1999/xlink" width="500" zoomAndPan="magnify" viewBox="0 0 375 374.999991" height="500" preserveAspectRatio="xMidYMid meet" version="1.0"><defs><g/><clipPath id="f817584a15"><path d="M 98.867188 26.546875 L 275 26.546875 L 275 204 L 98.867188 204 Z M 98.867188 26.546875 " clip-rule="nonzero"/></clipPath></defs><g clip-path="url(#f817584a15)"><path fill="#380303" d="M 201.035156 27.1875 C 200.914062 27.050781 200.769531 26.9375 200.601562 26.855469 C 200.4375 26.773438 200.261719 26.726562 200.078125 26.710938 C 199.894531 26.699219 199.714844 26.722656 199.539062 26.78125 C 199.363281 26.839844 199.203125 26.929688 199.066406 27.050781 C 198.925781 27.171875 198.8125 27.3125 198.730469 27.480469 C 198.648438 27.644531 198.597656 27.820312 198.585938 28.003906 C 198.570312 28.1875 198.59375 28.367188 198.652344 28.542969 C 198.710938 28.71875 198.796875 28.878906 198.917969 29.019531 C 199.039062 29.160156 199.183594 29.269531 199.347656 29.355469 C 199.511719 29.4375 199.6875 29.488281 199.871094 29.5 C 200.054688 29.515625 200.238281 29.492188 200.414062 29.4375 C 200.589844 29.378906 200.746094 29.289062 200.886719 29.167969 C 201.027344 29.046875 201.140625 28.90625 201.226562 28.738281 C 201.3125 28.570312 201.359375 28.394531 201.375 28.210938 C 201.386719 28.023438 201.363281 27.84375 201.304688 27.664062 C 201.246094 27.488281 201.15625 27.328125 201.035156 27.1875 M 181.722656 29.585938 C 181.601562 29.445312 181.457031 29.335938 181.292969 29.25 C 181.125 29.167969 180.953125 29.121094 180.765625 29.109375 C 180.582031 29.09375 180.402344 29.117188 180.226562 29.175781 C 180.050781 29.234375 179.894531 29.324219 179.753906 29.445312 C 179.613281 29.566406 179.5 29.710938 179.417969 29.875 C 179.335938 30.039062 179.285156 30.214844 179.273438 30.398438 C 179.261719 30.585938 179.28125 30.765625 179.339844 30.941406 C 179.398438 31.117188 179.488281 31.273438 179.609375 31.414062 C 179.726562 31.554688 179.871094 31.667969 180.035156 31.75 C 180.203125 31.832031 180.375 31.882812 180.558594 31.898438 C 180.746094 31.910156 180.925781 31.890625 181.101562 31.832031 C 181.277344 31.773438 181.433594 31.6875 181.574219 31.566406 C 181.71875 31.445312 181.832031 31.300781 181.914062 31.132812 C 182 30.96875 182.046875 30.792969 182.0625 30.605469 C 182.074219 30.421875 182.054688 30.238281 181.996094 30.0625 C 181.933594 29.882812 181.84375 29.726562 181.722656 29.585938 Z M 176.277344 162.15625 C 177.773438 148.03125 171.105469 136.089844 161.257812 122.757812 C 151.753906 109.882812 142.734375 95.625 138.851562 80.890625 C 134.601562 64.769531 136.503906 48.066406 150.644531 31.992188 C 103.207031 48.882812 125.277344 116.410156 147.660156 141.265625 C 130.167969 126.363281 115.214844 109.542969 109.863281 81.800781 C 101.566406 116.683594 119.3125 146.710938 144.878906 164.027344 C 130.230469 158.136719 109.265625 139.582031 98.878906 123.503906 C 100.566406 145.757812 116.964844 166.117188 138.15625 179.261719 C 144.925781 183.460938 151.726562 185.789062 157.582031 185.496094 C 166.152344 185.0625 174.789062 176.160156 176.277344 162.15625 Z M 163.738281 82.28125 C 169.5625 103.089844 193.140625 146.089844 178.882812 171.757812 C 175.863281 177.203125 170.566406 186.742188 157.816406 187.058594 C 162.433594 188.542969 167.71875 188.941406 172.800781 189.003906 C 157.132812 192.019531 138.34375 185.6875 124.160156 172.371094 C 133.984375 190.558594 152.699219 200.257812 167.726562 202.773438 C 213.734375 210.472656 217.320312 169.335938 199.921875 136.339844 C 190.675781 118.804688 177.773438 96.339844 174.917969 80.324219 C 171.171875 59.332031 190.742188 59.671875 194.722656 72.613281 C 197.097656 80.347656 196.339844 90.128906 196.5 95.789062 C 196.625 100.253906 205.179688 83.878906 204.222656 73.871094 C 218.332031 40.628906 151.160156 37.398438 163.738281 82.28125 Z M 212.113281 40.613281 C 208.199219 44.050781 204.402344 47.566406 203.003906 52.855469 C 199.253906 49.746094 194.113281 47.601562 187.46875 46.96875 C 187.613281 41.792969 185.371094 37.066406 182.882812 32.382812 C 186.800781 34.59375 190.09375 37.507812 192.761719 41.128906 C 194.921875 38.03125 197.027344 34.441406 199.191406 31.34375 C 200.042969 35.390625 200.476562 39.484375 200.496094 43.621094 Z M 205.378906 141.210938 C 207.53125 138.300781 209.941406 135.382812 212.539062 132.398438 C 223.011719 120.359375 233.097656 106.898438 238.109375 92.535156 C 243.589844 76.808594 242.980469 60.003906 230.121094 42.816406 C 276.132812 63.539062 248.917969 129.023438 224.683594 151.933594 C 243.257812 138.535156 259.480469 123.019531 266.957031 95.808594 C 272.535156 131.261719 252.523438 159.71875 225.699219 174.828125 C 240.75 170.171875 263.09375 153.441406 274.691406 138.257812 C 271.289062 160.292969 253.371094 179.210938 231.226562 190.5625 C 224.152344 194.191406 217.191406 195.945312 211.375 195.167969 C 209.359375 194.878906 207.480469 194.199219 205.746094 193.128906 C 216.144531 181.414062 214.492188 160.476562 205.390625 141.191406 Z M 215.5625 38.515625 C 215.441406 38.378906 215.296875 38.265625 215.132812 38.183594 C 214.964844 38.101562 214.792969 38.054688 214.609375 38.042969 C 214.425781 38.03125 214.246094 38.054688 214.070312 38.113281 C 213.894531 38.171875 213.738281 38.257812 213.597656 38.378906 C 213.460938 38.5 213.347656 38.644531 213.265625 38.808594 C 213.183594 38.972656 213.136719 39.148438 213.121094 39.332031 C 213.109375 39.515625 213.128906 39.695312 213.1875 39.871094 C 213.246094 40.042969 213.332031 40.203125 213.453125 40.34375 C 213.574219 40.480469 213.714844 40.59375 213.878906 40.675781 C 214.042969 40.761719 214.21875 40.808594 214.402344 40.824219 C 214.585938 40.839844 214.765625 40.816406 214.941406 40.761719 C 215.117188 40.703125 215.273438 40.617188 215.414062 40.496094 C 215.558594 40.375 215.675781 40.230469 215.761719 40.0625 C 215.851562 39.894531 215.902344 39.71875 215.917969 39.53125 C 215.933594 39.339844 215.910156 39.15625 215.851562 38.976562 C 215.789062 38.800781 215.699219 38.636719 215.574219 38.496094 Z M 215.5625 38.515625 " fill-opacity="1" fill-rule="evenodd"/></g><path fill="#380303" d="M 30.867188 239.371094 C 56.375 327.078125 157.734375 345.816406 235.796875 325.027344 C 275.40625 314.476562 314.011719 293.511719 339.78125 261.035156 C 364.179688 230.289062 371.054688 190.9375 361.597656 153.183594 C 355.210938 127.691406 341.640625 104.464844 325.832031 83.722656 C 306.027344 57.71875 281.65625 31.761719 252.316406 16.675781 C 197.605469 -11.464844 134.890625 8.828125 92.003906 48.546875 C 49.777344 87.652344 25.820312 145.253906 31.71875 202.8125 C 38.054688 264.59375 84.902344 319.875 143.261719 339.527344 C 197.742188 357.878906 260.035156 343.960938 303.371094 306.875 C 324.699219 288.617188 340.535156 264.523438 349 237.785156 C 356.925781 212.746094 357.097656 186.132812 353.828125 160.289062 C 348.007812 114.226562 325.609375 71.933594 286.371094 46.113281 C 251.386719 23.09375 207.667969 15.855469 166.511719 20.238281 C 128.027344 24.335938 88.742188 39.355469 61.148438 67.171875 C 36.132812 92.386719 26.875 126.894531 33.816406 161.484375 C 36.714844 175.941406 42.746094 189.289062 49.976562 202.046875 C 49.777344 201.695312 50.46875 199.5625 50 198.734375 C 38.824219 179.007812 30.59375 155.746094 32.375 132.800781 C 33.777344 114.695312 41.300781 97.582031 52.21875 83.230469 C 75.804688 52.21875 114.492188 34.859375 151.921875 27.816406 C 192.671875 20.15625 236.410156 24.535156 273.550781 43.507812 C 315.171875 64.773438 341.71875 104.328125 351.144531 149.523438 C 358.015625 182.46875 356.53125 216.804688 343.265625 247.953125 C 331.949219 274.519531 312.238281 296.875 288.546875 313.113281 C 240.855469 345.804688 177.269531 351.222656 124.984375 326.578125 C 62.605469 297.179688 21.839844 227.128906 33.96875 158.535156 C 44.539062 98.71875 87.738281 43.902344 143.464844 19.824219 C 169.808594 8.4375 199.21875 5.28125 227.148438 12.207031 C 260.832031 20.558594 286.5625 43.945312 309.367188 68.917969 C 343.886719 106.710938 374.886719 158.214844 362.101562 211.28125 C 352.40625 251.539062 320.210938 282.007812 284.914062 301.15625 C 247.136719 321.648438 202.707031 331.238281 159.847656 328.785156 C 131.96875 327.191406 103.914062 319.875 80.242188 304.753906 C 55.949219 289.246094 38.957031 265.03125 30.910156 237.53125 C 30.996094 237.824219 30.71875 238.847656 30.867188 239.371094 " fill-opacity="1" fill-rule="nonzero"/><path fill="#380303" d="M 26.75 240.992188 C 52.886719 330.855469 156.734375 350.050781 236.714844 328.753906 C 277.296875 317.945312 316.847656 296.464844 343.25 263.191406 C 368.246094 231.691406 375.292969 191.371094 365.601562 152.691406 C 359.058594 126.574219 345.15625 102.777344 328.957031 81.523438 C 308.667969 54.882812 283.695312 28.289062 253.640625 12.828125 C 197.582031 -16.003906 133.332031 4.789062 89.386719 45.484375 C 46.125 85.550781 21.578125 144.566406 27.625 203.539062 C 34.113281 266.835938 82.113281 323.472656 141.90625 343.609375 C 197.722656 362.410156 261.546875 348.152344 305.945312 310.15625 C 327.796875 291.449219 344.023438 266.765625 352.695312 239.367188 C 360.816406 213.714844 360.992188 186.449219 357.644531 159.972656 C 351.679688 112.777344 328.730469 69.445312 288.527344 42.988281 C 252.6875 19.40625 207.890625 11.988281 165.726562 16.480469 C 126.300781 20.675781 86.050781 36.066406 57.777344 64.566406 C 32.144531 90.402344 22.660156 125.753906 29.773438 161.195312 C 32.742188 176.007812 38.921875 189.679688 46.328125 202.753906 C 46.125 202.394531 46.835938 200.207031 46.355469 199.359375 C 34.90625 179.152344 26.46875 155.3125 28.296875 131.804688 C 29.730469 113.257812 37.441406 95.726562 48.625 81.019531 C 72.792969 49.246094 112.429688 31.457031 150.777344 24.246094 C 192.527344 16.394531 237.339844 20.882812 275.394531 40.320312 C 318.035156 62.109375 345.238281 102.636719 354.894531 148.9375 C 361.933594 182.695312 360.414062 217.871094 346.820312 249.789062 C 335.226562 277.007812 315.035156 299.910156 290.757812 316.550781 C 241.898438 350.042969 176.75 355.59375 123.179688 330.34375 C 59.269531 300.222656 17.503906 228.453125 29.929688 158.171875 C 40.761719 96.886719 85.019531 40.726562 142.113281 16.058594 C 169.105469 4.390625 199.238281 1.15625 227.851562 8.25 C 262.363281 16.808594 288.726562 40.769531 312.089844 66.355469 C 347.457031 105.078125 379.21875 157.84375 366.121094 212.214844 C 356.1875 253.460938 323.199219 284.675781 287.039062 304.292969 C 248.332031 325.292969 202.808594 335.117188 158.898438 332.605469 C 130.335938 330.96875 101.59375 323.472656 77.335938 307.980469 C 52.449219 292.09375 35.039062 267.285156 26.796875 239.109375 C 26.882812 239.410156 26.597656 240.457031 26.75 240.992188 " fill-opacity="1" fill-rule="nonzero"/><g fill="#380303" fill-opacity="1"><g transform="translate(55.477816, 250.978856)"><g><path d="M 9.375 0 L 3.046875 0 L 3.046875 -43.578125 L 25.140625 -43.578125 C 26.742188 -43.578125 28.0625 -43.195312 29.09375 -42.4375 C 30.125 -41.6875 30.898438 -40.738281 31.421875 -39.59375 C 31.941406 -38.445312 32.203125 -37.273438 32.203125 -36.078125 C 32.203125 -34.335938 31.851562 -32.847656 31.15625 -31.609375 C 30.457031 -30.378906 29.5625 -29.332031 28.46875 -28.46875 C 27.382812 -27.613281 26.222656 -26.90625 24.984375 -26.34375 C 23.753906 -25.78125 22.59375 -25.285156 21.5 -24.859375 C 20.414062 -24.441406 19.523438 -24.050781 18.828125 -23.6875 C 18.128906 -23.320312 17.78125 -22.921875 17.78125 -22.484375 C 17.78125 -22.046875 18.019531 -21.328125 18.5 -20.328125 C 18.976562 -19.328125 19.628906 -18.144531 20.453125 -16.78125 C 21.285156 -15.414062 22.207031 -13.984375 23.21875 -12.484375 C 24.238281 -10.984375 25.289062 -9.507812 26.375 -8.0625 C 27.46875 -6.613281 28.515625 -5.300781 29.515625 -4.125 C 30.523438 -2.945312 31.4375 -2.007812 32.25 -1.3125 C 33.0625 -0.613281 33.6875 -0.265625 34.125 -0.265625 L 34.125 0 L 26.9375 0 C 26.09375 0 25.441406 -0.0703125 24.984375 -0.21875 C 24.535156 -0.363281 24.109375 -0.664062 23.703125 -1.125 C 23.296875 -1.59375 22.71875 -2.320312 21.96875 -3.3125 C 21.238281 -4.269531 20.453125 -5.347656 19.609375 -6.546875 C 18.765625 -7.753906 17.9375 -9 17.125 -10.28125 C 16.3125 -11.5625 15.570312 -12.796875 14.90625 -13.984375 C 14.238281 -15.179688 13.707031 -16.265625 13.3125 -17.234375 C 12.914062 -18.203125 12.71875 -18.960938 12.71875 -19.515625 C 12.71875 -20.210938 13.035156 -20.835938 13.671875 -21.390625 C 14.316406 -21.941406 15.132812 -22.492188 16.125 -23.046875 C 17.113281 -23.597656 18.171875 -24.210938 19.296875 -24.890625 C 20.429688 -25.578125 21.492188 -26.394531 22.484375 -27.34375 C 23.472656 -28.289062 24.285156 -29.445312 24.921875 -30.8125 C 25.566406 -32.175781 25.890625 -33.800781 25.890625 -35.6875 C 25.890625 -37.050781 25.648438 -38.273438 25.171875 -39.359375 C 24.691406 -40.453125 23.921875 -41.316406 22.859375 -41.953125 C 21.796875 -42.597656 20.40625 -42.921875 18.6875 -42.921875 L 9.375 -42.921875 Z M 9.375 0 "/></g></g></g><g fill="#380303" fill-opacity="1"><g transform="translate(89.593395, 250.978856)"><g><path d="M 14.46875 0.4375 C 12.195312 0.4375 10.128906 -0.113281 8.265625 -1.21875 C 6.410156 -2.320312 4.929688 -4 3.828125 -6.25 C 2.722656 -8.5 2.171875 -11.351562 2.171875 -14.8125 C 2.171875 -18.269531 2.707031 -21.125 3.78125 -23.375 C 4.863281 -25.625 6.328125 -27.300781 8.171875 -28.40625 C 10.015625 -29.507812 12.113281 -30.0625 14.46875 -30.0625 C 16.726562 -30.0625 18.785156 -29.507812 20.640625 -28.40625 C 22.503906 -27.300781 23.992188 -25.625 25.109375 -23.375 C 26.234375 -21.125 26.796875 -18.269531 26.796875 -14.8125 C 26.796875 -11.351562 26.242188 -8.5 25.140625 -6.25 C 24.035156 -4 22.550781 -2.320312 20.6875 -1.21875 C 18.832031 -0.113281 16.757812 0.4375 14.46875 0.4375 Z M 11.15625 -28.984375 C 9.988281 -28.691406 9.078125 -27.789062 8.421875 -26.28125 C 7.773438 -24.769531 7.414062 -22.875 7.34375 -20.59375 C 7.269531 -18.3125 7.539062 -15.863281 8.15625 -13.25 C 8.757812 -10.664062 9.601562 -8.367188 10.6875 -6.359375 C 11.78125 -4.359375 12.957031 -2.84375 14.21875 -1.8125 C 15.488281 -0.78125 16.703125 -0.410156 17.859375 -0.703125 C 19.054688 -0.992188 19.976562 -1.894531 20.625 -3.40625 C 21.28125 -4.914062 21.644531 -6.804688 21.71875 -9.078125 C 21.789062 -11.359375 21.523438 -13.796875 20.921875 -16.390625 C 20.453125 -18.335938 19.851562 -20.125 19.125 -21.75 C 18.40625 -23.375 17.59375 -24.765625 16.6875 -25.921875 C 15.789062 -27.085938 14.863281 -27.945312 13.90625 -28.5 C 12.945312 -29.050781 12.03125 -29.210938 11.15625 -28.984375 Z M 11.15625 -28.984375 "/></g></g></g><g fill="#380303" fill-opacity="1"><g transform="translate(118.567671, 250.978856)"><g><path d="M 3.359375 13.9375 C 2.367188 13.9375 1.46875 13.828125 0.65625 13.609375 C -0.15625 13.398438 -0.957031 13.078125 -1.75 12.640625 L -1.75 6.5 C -0.8125 6.957031 0.0234375 7.335938 0.765625 7.640625 C 1.503906 7.953125 2.257812 8.1875 3.03125 8.34375 C 3.800781 8.5 4.691406 8.578125 5.703125 8.578125 C 9.304688 8.578125 12.285156 7.851562 14.640625 6.40625 C 16.992188 4.957031 18.78125 2.890625 20 0.203125 C 21.21875 -2.484375 21.914062 -5.703125 22.09375 -9.453125 C 21.394531 -7.679688 20.609375 -6.039062 19.734375 -4.53125 C 18.867188 -3.019531 17.921875 -1.8125 16.890625 -0.90625 C 15.859375 -0.0078125 14.757812 0.4375 13.59375 0.4375 C 12.289062 0.4375 11.21875 0.21875 10.375 -0.21875 C 9.53125 -0.65625 8.851562 -1.25 8.34375 -2 C 7.832031 -2.757812 7.398438 -3.628906 7.046875 -4.609375 C 6.703125 -5.597656 6.375 -6.644531 6.0625 -7.75 C 5.476562 -9.695312 4.972656 -11.523438 4.546875 -13.234375 C 4.128906 -14.953125 3.738281 -16.644531 3.375 -18.3125 C 3.007812 -19.988281 2.628906 -21.742188 2.234375 -23.578125 C 1.847656 -25.410156 1.394531 -27.429688 0.875 -29.640625 L 7.1875 -29.640625 C 7.769531 -27.191406 8.28125 -24.976562 8.71875 -23 C 9.15625 -21.03125 9.578125 -19.125 9.984375 -17.28125 C 10.390625 -15.4375 10.835938 -13.546875 11.328125 -11.609375 C 11.828125 -9.679688 12.4375 -7.539062 13.15625 -5.1875 C 13.5625 -3.851562 13.972656 -2.878906 14.390625 -2.265625 C 14.816406 -1.648438 15.25 -1.34375 15.6875 -1.34375 C 16.175781 -1.34375 16.769531 -1.800781 17.46875 -2.71875 C 18.164062 -3.632812 18.851562 -4.851562 19.53125 -6.375 C 20.21875 -7.90625 20.785156 -9.617188 21.234375 -11.515625 C 21.691406 -13.421875 21.921875 -15.363281 21.921875 -17.34375 C 21.921875 -18.9375 21.757812 -20.492188 21.4375 -22.015625 C 21.125 -23.546875 20.570312 -24.960938 19.78125 -26.265625 C 19 -27.578125 17.910156 -28.703125 16.515625 -29.640625 L 21.796875 -32.6875 C 23.035156 -32.039062 24.003906 -30.945312 24.703125 -29.40625 C 25.398438 -27.875 25.75 -26.101562 25.75 -24.09375 C 25.75 -21.21875 25.546875 -18.285156 25.140625 -15.296875 C 24.734375 -12.304688 24.113281 -9.394531 23.28125 -6.5625 C 22.457031 -3.726562 21.421875 -1.078125 20.171875 1.390625 C 18.921875 3.859375 17.46875 6.035156 15.8125 7.921875 C 14.15625 9.816406 12.289062 11.289062 10.21875 12.34375 C 8.144531 13.40625 5.859375 13.9375 3.359375 13.9375 Z M 3.359375 13.9375 "/></g></g></g><g fill="#380303" fill-opacity="1"><g transform="translate(146.496254, 250.978856)"><g><path d="M 1.3125 -5.84375 C 1.3125 -7.207031 1.628906 -8.503906 2.265625 -9.734375 C 2.898438 -10.972656 3.765625 -12.144531 4.859375 -13.25 C 5.953125 -14.351562 7.179688 -15.375 8.546875 -16.3125 C 9.910156 -17.257812 11.300781 -18.125 12.71875 -18.90625 C 11.300781 -19.519531 9.875 -20.015625 8.4375 -20.390625 C 7 -20.773438 5.675781 -21.066406 4.46875 -21.265625 C 3.257812 -21.472656 2.28125 -21.585938 1.53125 -21.609375 C 1.957031 -23.441406 2.796875 -24.984375 4.046875 -26.234375 C 5.296875 -27.484375 6.75 -28.429688 8.40625 -29.078125 C 10.0625 -29.734375 11.71875 -30.0625 13.375 -30.0625 C 15.550781 -30.0625 17.269531 -29.742188 18.53125 -29.109375 C 19.800781 -28.472656 20.785156 -27.59375 21.484375 -26.46875 C 22.179688 -25.351562 22.71875 -24.085938 23.09375 -22.671875 C 23.46875 -21.265625 23.847656 -19.78125 24.234375 -18.21875 C 24.753906 -16.15625 25.222656 -14.191406 25.640625 -12.328125 C 26.066406 -10.472656 26.519531 -8.5625 27 -6.59375 C 27.476562 -4.632812 28.007812 -2.4375 28.59375 0 L 22.1875 0 L 22.1875 -9.234375 C 22.1875 -8.242188 21.914062 -7.191406 21.375 -6.078125 C 20.832031 -4.960938 20.039062 -3.910156 19 -2.921875 C 17.957031 -1.929688 16.65625 -1.125 15.09375 -0.5 C 13.539062 0.125 11.765625 0.4375 9.765625 0.4375 C 8.398438 0.4375 7.066406 0.195312 5.765625 -0.28125 C 4.472656 -0.757812 3.40625 -1.46875 2.5625 -2.40625 C 1.726562 -3.351562 1.3125 -4.5 1.3125 -5.84375 Z M 21.53125 -9.234375 C 21.53125 -10.597656 21.21875 -11.828125 20.59375 -12.921875 C 19.96875 -14.015625 19.125 -14.992188 18.0625 -15.859375 C 17 -16.734375 15.816406 -17.488281 14.515625 -18.125 C 13.234375 -17.164062 12.054688 -16.085938 10.984375 -14.890625 C 9.910156 -13.703125 9.050781 -12.429688 8.40625 -11.078125 C 7.769531 -9.734375 7.453125 -8.304688 7.453125 -6.796875 C 7.453125 -5.722656 7.734375 -4.78125 8.296875 -3.96875 C 8.867188 -3.15625 9.640625 -2.507812 10.609375 -2.03125 C 11.585938 -1.550781 12.671875 -1.3125 13.859375 -1.3125 C 14.898438 -1.3125 15.882812 -1.585938 16.8125 -2.140625 C 17.75 -2.691406 18.570312 -3.382812 19.28125 -4.21875 C 19.988281 -5.0625 20.539062 -5.929688 20.9375 -6.828125 C 21.332031 -7.734375 21.53125 -8.535156 21.53125 -9.234375 Z M 13.640625 -19.4375 C 15.296875 -20.28125 16.878906 -20.988281 18.390625 -21.5625 C 19.898438 -22.144531 21.148438 -22.582031 22.140625 -22.875 C 22.023438 -24.675781 21.414062 -26.003906 20.3125 -26.859375 C 19.207031 -27.722656 17.925781 -28.15625 16.46875 -28.15625 C 15.101562 -28.15625 13.894531 -27.941406 12.84375 -27.515625 C 11.800781 -27.097656 10.925781 -26.578125 10.21875 -25.953125 C 9.507812 -25.328125 8.972656 -24.691406 8.609375 -24.046875 C 8.242188 -23.410156 8.0625 -22.875 8.0625 -22.4375 C 8.0625 -22.238281 8.109375 -21.992188 8.203125 -21.703125 C 8.304688 -21.410156 8.550781 -21.207031 8.9375 -21.09375 C 10.625 -20.59375 12.191406 -20.039062 13.640625 -19.4375 Z M 22.1875 -22.140625 C 21.132812 -21.816406 20.003906 -21.359375 18.796875 -20.765625 C 17.597656 -20.171875 16.414062 -19.46875 15.25 -18.65625 C 17.3125 -17.570312 18.984375 -16.269531 20.265625 -14.75 C 21.546875 -13.226562 22.1875 -11.390625 22.1875 -9.234375 Z M 22.1875 -22.140625 "/></g></g></g><g fill="#380303" fill-opacity="1"><g transform="translate(175.949796, 250.978856)"><g><path d="M 0 -40.875 C 1.070312 -41.019531 2.1875 -41.25 3.34375 -41.5625 C 4.507812 -41.882812 5.625 -42.265625 6.6875 -42.703125 C 7.75 -43.140625 8.65625 -43.578125 9.40625 -44.015625 L 9.40625 0 L 3.09375 0 L 3.09375 -38 C 3.09375 -39.1875 2.84375 -39.925781 2.34375 -40.21875 C 1.851562 -40.507812 1.070312 -40.65625 0 -40.65625 Z M 0 -40.875 "/></g></g></g><g fill="#380303" fill-opacity="1"><g transform="translate(187.975213, 250.978856)"><g/></g></g><g fill="#380303" fill-opacity="1"><g transform="translate(205.40335, 250.978856)"><g><path d="M 12.984375 0.4375 C 10.367188 0.4375 8.066406 0.046875 6.078125 -0.734375 C 4.085938 -1.523438 2.351562 -2.691406 0.875 -4.234375 L 4.1875 -12.03125 C 5.113281 -10.164062 6.300781 -8.441406 7.75 -6.859375 C 9.207031 -5.273438 10.878906 -3.992188 12.765625 -3.015625 C 14.648438 -2.046875 16.6875 -1.5625 18.875 -1.5625 C 19.65625 -1.5625 20.328125 -1.800781 20.890625 -2.28125 C 21.460938 -2.757812 21.75 -3.421875 21.75 -4.265625 C 21.75 -5.347656 21.382812 -6.269531 20.65625 -7.03125 C 19.925781 -7.800781 18.96875 -8.484375 17.78125 -9.078125 C 16.59375 -9.679688 15.285156 -10.265625 13.859375 -10.828125 C 12.429688 -11.390625 11.003906 -11.984375 9.578125 -12.609375 C 8.160156 -13.234375 6.851562 -13.953125 5.65625 -14.765625 C 4.46875 -15.585938 3.507812 -16.570312 2.78125 -17.71875 C 2.0625 -18.863281 1.703125 -20.222656 1.703125 -21.796875 C 1.703125 -23.648438 2.222656 -25.1875 3.265625 -26.40625 C 4.316406 -27.625 5.734375 -28.535156 7.515625 -29.140625 C 9.304688 -29.753906 11.289062 -30.0625 13.46875 -30.0625 C 15.09375 -30.0625 16.578125 -29.878906 17.921875 -29.515625 C 19.273438 -29.160156 20.445312 -28.742188 21.4375 -28.265625 C 22.425781 -27.785156 23.164062 -27.367188 23.65625 -27.015625 L 20.34375 -20.4375 C 19.382812 -21.539062 18.25 -22.671875 16.9375 -23.828125 C 15.632812 -24.992188 14.175781 -25.984375 12.5625 -26.796875 C 10.957031 -27.609375 9.210938 -28.015625 7.328125 -28.015625 C 6.273438 -28.015625 5.5 -27.71875 5 -27.125 C 4.507812 -26.53125 4.265625 -25.867188 4.265625 -25.140625 C 4.265625 -24.003906 4.628906 -23.035156 5.359375 -22.234375 C 6.085938 -21.441406 7.046875 -20.738281 8.234375 -20.125 C 9.421875 -19.519531 10.734375 -18.945312 12.171875 -18.40625 C 13.617188 -17.875 15.0625 -17.304688 16.5 -16.703125 C 17.9375 -16.109375 19.25 -15.40625 20.4375 -14.59375 C 21.625 -13.78125 22.582031 -12.804688 23.3125 -11.671875 C 24.039062 -10.546875 24.40625 -9.179688 24.40625 -7.578125 C 24.40625 -5.773438 23.910156 -4.28125 22.921875 -3.09375 C 21.929688 -1.90625 20.570312 -1.019531 18.84375 -0.4375 C 17.113281 0.144531 15.160156 0.4375 12.984375 0.4375 Z M 12.984375 0.4375 "/></g></g></g><g fill="#380303" fill-opacity="1"><g transform="translate(230.674146, 250.978856)"><g><path d="M 0.875 -29.640625 L 7.1875 -29.640625 L 13.15625 -5.1875 C 13.5625 -3.851562 13.972656 -2.878906 14.390625 -2.265625 C 14.816406 -1.648438 15.25 -1.34375 15.6875 -1.34375 C 16.269531 -1.34375 16.875 -1.71875 17.5 -2.46875 C 18.125 -3.226562 18.6875 -4.191406 19.1875 -5.359375 C 19.695312 -6.523438 20.066406 -7.742188 20.296875 -9.015625 C 20.535156 -10.296875 20.523438 -11.445312 20.265625 -12.46875 C 20.234375 -12.550781 20.207031 -12.644531 20.1875 -12.75 C 20.175781 -12.851562 20.160156 -12.945312 20.140625 -13.03125 C 19.703125 -14.800781 19.289062 -16.535156 18.90625 -18.234375 C 18.53125 -19.929688 18.144531 -21.703125 17.75 -23.546875 C 17.363281 -25.398438 16.910156 -27.429688 16.390625 -29.640625 L 22.703125 -29.640625 C 23.285156 -27.191406 23.796875 -24.976562 24.234375 -23 C 24.671875 -21.03125 25.09375 -19.125 25.5 -17.28125 C 25.90625 -15.4375 26.351562 -13.546875 26.84375 -11.609375 C 27.332031 -9.679688 27.941406 -7.539062 28.671875 -5.1875 C 29.078125 -3.851562 29.488281 -2.878906 29.90625 -2.265625 C 30.332031 -1.648438 30.765625 -1.34375 31.203125 -1.34375 C 31.898438 -1.34375 32.566406 -1.785156 33.203125 -2.671875 C 33.847656 -3.566406 34.421875 -4.707031 34.921875 -6.09375 C 35.429688 -7.488281 35.875 -8.984375 36.25 -10.578125 C 36.632812 -12.179688 36.925781 -13.71875 37.125 -15.1875 C 37.332031 -16.65625 37.4375 -17.867188 37.4375 -18.828125 C 37.4375 -20.890625 37.179688 -22.601562 36.671875 -23.96875 C 36.160156 -25.332031 35.5 -26.457031 34.6875 -27.34375 C 33.875 -28.226562 32.988281 -28.992188 32.03125 -29.640625 L 37.296875 -32.6875 C 38.546875 -32.039062 39.519531 -31.09375 40.21875 -29.84375 C 40.914062 -28.601562 41.265625 -27.125 41.265625 -25.40625 C 41.265625 -24.445312 41.132812 -23.15625 40.875 -21.53125 C 40.613281 -19.90625 40.234375 -18.117188 39.734375 -16.171875 C 39.242188 -14.222656 38.640625 -12.273438 37.921875 -10.328125 C 37.210938 -8.378906 36.410156 -6.59375 35.515625 -4.96875 C 34.617188 -3.34375 33.628906 -2.035156 32.546875 -1.046875 C 31.472656 -0.0546875 30.328125 0.4375 29.109375 0.4375 C 27.804688 0.4375 26.734375 0.21875 25.890625 -0.21875 C 25.046875 -0.65625 24.367188 -1.25 23.859375 -2 C 23.347656 -2.757812 22.914062 -3.628906 22.5625 -4.609375 C 22.21875 -5.597656 21.890625 -6.644531 21.578125 -7.75 C 21.546875 -7.8125 21.53125 -7.859375 21.53125 -7.890625 C 21.53125 -7.921875 21.515625 -7.945312 21.484375 -7.96875 C 20.816406 -6.4375 20.078125 -5.03125 19.265625 -3.75 C 18.453125 -2.46875 17.570312 -1.445312 16.625 -0.6875 C 15.675781 0.0625 14.664062 0.4375 13.59375 0.4375 C 12.289062 0.4375 11.21875 0.21875 10.375 -0.21875 C 9.53125 -0.65625 8.851562 -1.25 8.34375 -2 C 7.832031 -2.757812 7.398438 -3.628906 7.046875 -4.609375 C 6.703125 -5.597656 6.375 -6.644531 6.0625 -7.75 C 5.476562 -9.695312 4.972656 -11.523438 4.546875 -13.234375 C 4.128906 -14.953125 3.738281 -16.644531 3.375 -18.3125 C 3.007812 -19.988281 2.628906 -21.742188 2.234375 -23.578125 C 1.847656 -25.410156 1.394531 -27.429688 0.875 -29.640625 Z M 0.875 -29.640625 "/></g></g></g><g fill="#380303" fill-opacity="1"><g transform="translate(274.113787, 250.978856)"><g><path d="M 1.3125 -5.84375 C 1.3125 -7.207031 1.628906 -8.503906 2.265625 -9.734375 C 2.898438 -10.972656 3.765625 -12.144531 4.859375 -13.25 C 5.953125 -14.351562 7.179688 -15.375 8.546875 -16.3125 C 9.910156 -17.257812 11.300781 -18.125 12.71875 -18.90625 C 11.300781 -19.519531 9.875 -20.015625 8.4375 -20.390625 C 7 -20.773438 5.675781 -21.066406 4.46875 -21.265625 C 3.257812 -21.472656 2.28125 -21.585938 1.53125 -21.609375 C 1.957031 -23.441406 2.796875 -24.984375 4.046875 -26.234375 C 5.296875 -27.484375 6.75 -28.429688 8.40625 -29.078125 C 10.0625 -29.734375 11.71875 -30.0625 13.375 -30.0625 C 15.550781 -30.0625 17.269531 -29.742188 18.53125 -29.109375 C 19.800781 -28.472656 20.785156 -27.59375 21.484375 -26.46875 C 22.179688 -25.351562 22.71875 -24.085938 23.09375 -22.671875 C 23.46875 -21.265625 23.847656 -19.78125 24.234375 -18.21875 C 24.753906 -16.15625 25.222656 -14.191406 25.640625 -12.328125 C 26.066406 -10.472656 26.519531 -8.5625 27 -6.59375 C 27.476562 -4.632812 28.007812 -2.4375 28.59375 0 L 22.1875 0 L 22.1875 -9.234375 C 22.1875 -8.242188 21.914062 -7.191406 21.375 -6.078125 C 20.832031 -4.960938 20.039062 -3.910156 19 -2.921875 C 17.957031 -1.929688 16.65625 -1.125 15.09375 -0.5 C 13.539062 0.125 11.765625 0.4375 9.765625 0.4375 C 8.398438 0.4375 7.066406 0.195312 5.765625 -0.28125 C 4.472656 -0.757812 3.40625 -1.46875 2.5625 -2.40625 C 1.726562 -3.351562 1.3125 -4.5 1.3125 -5.84375 Z M 21.53125 -9.234375 C 21.53125 -10.597656 21.21875 -11.828125 20.59375 -12.921875 C 19.96875 -14.015625 19.125 -14.992188 18.0625 -15.859375 C 17 -16.734375 15.816406 -17.488281 14.515625 -18.125 C 13.234375 -17.164062 12.054688 -16.085938 10.984375 -14.890625 C 9.910156 -13.703125 9.050781 -12.429688 8.40625 -11.078125 C 7.769531 -9.734375 7.453125 -8.304688 7.453125 -6.796875 C 7.453125 -5.722656 7.734375 -4.78125 8.296875 -3.96875 C 8.867188 -3.15625 9.640625 -2.507812 10.609375 -2.03125 C 11.585938 -1.550781 12.671875 -1.3125 13.859375 -1.3125 C 14.898438 -1.3125 15.882812 -1.585938 16.8125 -2.140625 C 17.75 -2.691406 18.570312 -3.382812 19.28125 -4.21875 C 19.988281 -5.0625 20.539062 -5.929688 20.9375 -6.828125 C 21.332031 -7.734375 21.53125 -8.535156 21.53125 -9.234375 Z M 13.640625 -19.4375 C 15.296875 -20.28125 16.878906 -20.988281 18.390625 -21.5625 C 19.898438 -22.144531 21.148438 -22.582031 22.140625 -22.875 C 22.023438 -24.675781 21.414062 -26.003906 20.3125 -26.859375 C 19.207031 -27.722656 17.925781 -28.15625 16.46875 -28.15625 C 15.101562 -28.15625 13.894531 -27.941406 12.84375 -27.515625 C 11.800781 -27.097656 10.925781 -26.578125 10.21875 -25.953125 C 9.507812 -25.328125 8.972656 -24.691406 8.609375 -24.046875 C 8.242188 -23.410156 8.0625 -22.875 8.0625 -22.4375 C 8.0625 -22.238281 8.109375 -21.992188 8.203125 -21.703125 C 8.304688 -21.410156 8.550781 -21.207031 8.9375 -21.09375 C 10.625 -20.59375 12.191406 -20.039062 13.640625 -19.4375 Z M 22.1875 -22.140625 C 21.132812 -21.816406 20.003906 -21.359375 18.796875 -20.765625 C 17.597656 -20.171875 16.414062 -19.46875 15.25 -18.65625 C 17.3125 -17.570312 18.984375 -16.269531 20.265625 -14.75 C 21.546875 -13.226562 22.1875 -11.390625 22.1875 -9.234375 Z M 22.1875 -22.140625 "/></g></g></g><g fill="#380303" fill-opacity="1"><g transform="translate(303.56733, 250.978856)"><g><path d="M 0 -26.9375 C 1.070312 -27.082031 2.1875 -27.3125 3.34375 -27.625 C 4.507812 -27.945312 5.625 -28.328125 6.6875 -28.765625 C 7.75 -29.203125 8.65625 -29.632812 9.40625 -30.0625 L 9.40625 -20.703125 C 9.550781 -21.628906 9.894531 -22.628906 10.4375 -23.703125 C 10.976562 -24.773438 11.695312 -25.789062 12.59375 -26.75 C 13.488281 -27.707031 14.566406 -28.5 15.828125 -29.125 C 17.097656 -29.75 18.519531 -30.0625 20.09375 -30.0625 C 20.675781 -30.0625 21.382812 -29.988281 22.21875 -29.84375 C 23.0625 -29.707031 23.890625 -29.382812 24.703125 -28.875 C 25.515625 -28.363281 26.195312 -27.546875 26.75 -26.421875 C 27.300781 -25.304688 27.578125 -23.765625 27.578125 -21.796875 L 27.578125 0 L 21.265625 0 L 21.265625 -23.96875 C 21.265625 -25.363281 20.9375 -26.398438 20.28125 -27.078125 C 19.632812 -27.765625 18.785156 -28.109375 17.734375 -28.109375 C 16.578125 -28.109375 15.488281 -27.785156 14.46875 -27.140625 C 13.445312 -26.503906 12.554688 -25.640625 11.796875 -24.546875 C 11.046875 -23.460938 10.457031 -22.222656 10.03125 -20.828125 C 9.613281 -19.429688 9.40625 -17.976562 9.40625 -16.46875 L 9.40625 0 L 3.09375 0 L 3.09375 -23.875 C 3.09375 -25.070312 2.84375 -25.84375 2.34375 -26.1875 C 1.851562 -26.539062 1.070312 -26.71875 0 -26.71875 Z M 0 -26.9375 "/></g></g></g></svg>